<svg xmlns="http://www.w3.org/2000/svg" xmlns:xlink="http://www.w3.org/1999/xlink" fill="#fff" fill-rule="evenodd" stroke="#000" stroke-linecap="round" stroke-linejoin="round" width="86.33333587646484" height="85" style=""><rect id="backgroundrect" width="100%" height="100%" x="0" y="0" fill="none" stroke="none"/><symbol id="A" overflow="visible"><g stroke="none" id="svg_1"><path d="M80 48.357l-40-4.981-40 4.981L40 80l40-31.643z" fill="#fcbf92" id="svg_2"/><path d="M0 48.357l40 12.089V80L0 59.733V48.357z" fill="#9d5025" id="svg_3"/><path d="M80 48.357L40 60.446V80l40-20.267V48.357z" fill="#f58534" id="svg_4"/><path d="M5.165 31.168H0v11.495l5.165.951 5.741-6.157-5.741-6.288z" fill="#9d5025" id="svg_5"/><path d="M10.906 43.138l-5.741.475V31.168h5.741v11.97z" fill="#f58534" id="svg_6"/><path d="M14.777 16.832l-6.8 1.296v26.08l6.8 1.426 6.224-14.467-6.224-14.336z" fill="#9d5025" id="svg_7"/><path d="M21 44.921l-6.223.713V16.832l6.223.713v27.376z" fill="#f58534" id="svg_8"/><path d="M28.035 22.633l-9.388.951v22.871l9.388 1.902L38 35.435l-9.965-12.802z" fill="#9d5025" id="svg_9"/><path d="M34.364 47.287l-6.329 1.07V22.633l6.329.475v24.178z" fill="#f58534" id="svg_10"/><g fill="#9d5025" id="svg_11"><path d="M40 1.89l-6.329 2.021v45.516L40 50.722l6.329-24.416L40 1.89z" id="svg_12"/><path d="M45.859 47.287l6.106 1.07 9.388-17.189-9.388-17.07-6.106.951v32.238z" id="svg_13"/><path d="M61.353 31.168l-9.388-17.07-6.106.951" id="svg_14"/><path d="M58.882 44.922l6.341.713 6.8-21.694-6.8-21.575-6.341 1.545v41.01z" id="svg_15"/><path d="M69.094 43.138l5.741.475L80 22.158 74.835 0l-5.741 1.426v41.712z" id="svg_16"/></g><path d="M40 1.89l6.329 2.021v45.516L40 50.722V1.89zM61.353 16l-9.388-1.902v34.259l9.388-1.902V16zM72.024 5.1l-6.8-2.734v43.269l6.8-1.427V5.1zM80 2.603L74.835 0v43.614L80 42.663V2.603z" fill="#f58534" id="svg_17"/></g></symbol><g class="currentLayer" style=""><title>Layer 1</title><use xlink:href="#A" x="2.5" y="2.5" id="svg_18"/><path fill="#1aeb1a" fill-opacity="1" stroke="#222222" stroke-opacity="1" stroke-width="2" stroke-dasharray="none" stroke-linejoin="round" stroke-linecap="butt" stroke-dashoffset="" fill-rule="nonzero" opacity="1" marker-start="" marker-mid="" marker-end="" d="M53.333332896232605,67.99999940395355 C53.333332896232605,59.16022039842869 60.493553890707744,51.99999940395355 69.3333328962326,51.99999940395355 C78.17311190175747,51.99999940395355 85.3333328962326,59.16022039842869 85.3333328962326,67.99999940395355 C85.3333328962326,76.83977840947841 78.17311190175747,83.99999940395355 69.3333328962326,83.99999940395355 C60.493553890707744,83.99999940395355 53.333332896232605,76.83977840947841 53.333332896232605,67.99999940395355 z" id="svg_19" class=""/></g></svg>