<svg xmlns="http://www.w3.org/2000/svg" width="24" height="24"><rect id="backgroundrect" width="100%" height="100%" x="0" y="0" fill="none" stroke="none"/>

<defs>

<style>.cls-1{fill:#aecbfa;}.cls-1,.cls-2,.cls-3{fill-rule:evenodd;}.cls-2{fill:#669df6;}.cls-3{fill:#4285f4;}</style>

</defs>

<title>Icon_24px_BigQuery_Color</title>



<g class="currentLayer" style=""><title>Layer 1</title><g data-name="Product Icons" id="svg_1">

<g id="svg_2">

<path class="cls-1" d="M6.73,10.83v2.63A4.91,4.91,0,0,0,8.44,15.2V10.83Z" id="svg_3"/>

<path class="cls-2" d="M9.89,8.41v7.53A7.62,7.62,0,0,0,11,16,8,8,0,0,0,12,16V8.41Z" id="svg_4"/>

<path class="cls-1" d="M13.64,11.86v3.29a5,5,0,0,0,1.7-1.82V11.86Z" id="svg_5"/>

<path class="cls-3" d="M17.74,16.32l-1.42,1.42a.42.42,0,0,0,0,.6l3.54,3.54a.42.42,0,0,0,.59,0l1.43-1.43a.42.42,0,0,0,0-.59l-3.54-3.54a.42.42,0,0,0-.6,0" id="svg_6"/>

<path class="cls-2" d="M11,2a9,9,0,1,0,9,9,9,9,0,0,0-9-9m0,15.69A6.68,6.68,0,1,1,17.69,11,6.68,6.68,0,0,1,11,17.69" id="svg_7"/>

</g>

</g><path fill="#1aeb1a" fill-opacity="1" stroke="#222222" stroke-opacity="1" stroke-width="1" stroke-dasharray="none" stroke-linejoin="round" stroke-linecap="butt" stroke-dashoffset="" fill-rule="nonzero" opacity="1" marker-start="" marker-mid="" marker-end="" d="M13.000000194324045,18.184210473697945 C13.000000194324045,15.29508168260718 15.340194515107571,12.954887361823657 18.229323306198335,12.954887361823657 C21.118452097289104,12.954887361823657 23.458646418072625,15.29508168260718 23.458646418072625,18.184210473697945 C23.458646418072625,21.073339264788714 21.118452097289104,23.413533585572235 18.229323306198335,23.413533585572235 C15.340194515107571,23.413533585572235 13.000000194324045,21.073339264788714 13.000000194324045,18.184210473697945 z" id="svg_8" class="selected"/></g></svg>