<?xml version="1.0" encoding="UTF-8"?>
<svg version="1.1" xmlns="http://www.w3.org/2000/svg" width="48" height="48">
<path d="M0 0 C3.96 0 7.92 0 12 0 C12.33 3.63 12.66 7.26 13 11 C14.63710938 10.2059375 16.27421875 9.411875 17.9609375 8.59375 C20.09886 7.56229616 22.2368862 6.53105725 24.375 5.5 C25.45523438 4.97535156 26.53546875 4.45070313 27.6484375 3.91015625 C28.6796875 3.41386719 29.7109375 2.91757812 30.7734375 2.40625 C31.72653809 1.94541016 32.67963867 1.48457031 33.66162109 1.00976562 C36 0 36 0 38 0 C38 3.96 38 7.92 38 12 C26.0859375 17.95703125 26.0859375 17.95703125 23.98730469 19.00244141 C22.18453586 19.90736935 20.39238471 20.83337298 18.6015625 21.76171875 C16 23 16 23 14 23 C14 23.66 14 24.32 14 25 C14.80824219 25.24621094 15.61648437 25.49242188 16.44921875 25.74609375 C20.71504304 27.25250695 24.73214309 29.11798209 28.8125 31.0625 C29.97555664 31.60874023 29.97555664 31.60874023 31.16210938 32.16601562 C36.86553935 34.86553935 36.86553935 34.86553935 38 36 C38.07244053 38.01964199 38.08377188 40.04167124 38.0625 42.0625 C38.05347656 43.16722656 38.04445312 44.27195313 38.03515625 45.41015625 C38.02355469 46.26480469 38.01195312 47.11945312 38 48 C32.43335076 46.33913088 27.34213647 43.88928264 22.125 41.375 C21.24585937 40.95476563 20.36671875 40.53453125 19.4609375 40.1015625 C17.30579099 39.07084026 15.15268769 38.03584774 13 37 C12.67 40.63 12.34 44.26 12 48 C8.04 48 4.08 48 0 48 C0 42.06 0 36.12 0 30 C-1.98 29.34 -3.96 28.68 -6 28 C-7.34721283 27.36184656 -8.68747118 26.70674629 -10 26 C-10 24.68 -10 23.36 -10 22 C-8.71086513 21.32845067 -7.41859796 20.66291141 -6.125 20 C-5.40570312 19.62875 -4.68640625 19.2575 -3.9453125 18.875 C-2 18 -2 18 0 18 C0 12.06 0 6.12 0 0 Z " fill="#C9151E" transform="translate(10,0)"/>
</svg>
