<svg xmlns="http://www.w3.org/2000/svg" version="1.1" width="48" height="48" style=""><rect id="backgroundrect" width="100%" height="100%" x="0" y="0" fill="none" stroke="none"/>

<g class="currentLayer" style=""><title>Layer 1</title><path d="M10,0 C13.960000038146973,0 17.920000076293945,0 22,0 C22.329999923706055,3.630000114440918 22.65999984741211,7.260000228881836 23,11 C24.637109756469727,10.205937385559082 26.274219512939453,9.411874771118164 27.9609375,8.59375 C30.098859786987305,7.562295913696289 32.236886978149414,6.531057357788086 34.375,5.5 C35.45523452758789,4.975351333618164 36.53546905517578,4.450703144073486 37.6484375,3.91015625 C38.6796875,3.413867235183716 39.7109375,2.9175782203674316 40.7734375,2.40625 C41.72653770446777,1.9454102516174316 42.67963790893555,1.4845702648162842 43.66162109375,1.009765625 C46,0 46,0 48,0 C48,3.9600000381469727 48,7.920000076293945 48,12 C36.0859375,17.95703125 36.0859375,17.95703125 33.9873046875,19.00244140625 C32.18453598022461,19.90736961364746 30.392385482788086,20.833372116088867 28.6015625,21.76171875 C26,23 26,23 24,23 C24,23.65999984741211 24,24.31999969482422 24,25 C24.808241844177246,25.2462100982666 25.61648464202881,25.492422103881836 26.44921875,25.74609375 C30.715042114257812,27.252506256103516 34.73214340209961,29.117982864379883 38.8125,31.0625 C39.97555732727051,31.608739852905273 39.97555732727051,31.608739852905273 41.162109375,32.166015625 C46.86553955078125,34.86553955078125 46.86553955078125,34.86553955078125 48,36 C48.07244110107422,38.0196418762207 48.083770751953125,40.04167175292969 48.0625,42.0625 C48.0534782409668,43.1672248840332 48.04445266723633,44.27195358276367 48.03515625,45.41015625 C48.023555755615234,46.26480484008789 48.0119514465332,47.11945343017578 48,48 C42.433349609375,46.33913040161133 37.34213638305664,43.8892822265625 32.125,41.375 C31.245859146118164,40.95476531982422 30.366718292236328,40.53453063964844 29.4609375,40.1015625 C27.3057918548584,39.070838928222656 25.152688026428223,38.03584671020508 23,37 C22.670000076293945,40.630001068115234 22.34000015258789,44.2599983215332 22,48 C18.039999961853027,48 14.079999923706055,48 10,48 C10,42.060001373291016 10,36.119998931884766 10,30 C8.019999980926514,29.34000015258789 6.039999961853027,28.68000030517578 4,28 C2.652787208557129,27.361846923828125 1.3125286102294922,26.70674705505371 0,26 C0,24.68000030517578 0,23.360000610351562 0,22 C1.2891349792480469,21.32845115661621 2.581401824951172,20.66291046142578 3.875,20 C4.594296932220459,19.62874984741211 5.313593864440918,19.25749969482422 6.0546875,18.875 C8,18 8,18 10,18 C10,12.0600004196167 10,6.119999885559082 10,0 z" fill="#C9151E" id="svg_1" transform=""/><path fill="#1aeb1a" fill-opacity="1" stroke="#222222" stroke-opacity="1" stroke-width="2" stroke-dasharray="none" stroke-linejoin="round" stroke-linecap="butt" stroke-dashoffset="" fill-rule="nonzero" opacity="1" marker-start="" marker-mid="" marker-end="" d="M28.470590440610295,38.10784447410197 C28.470590440610295,32.96755744980965 32.634226599057,28.803923501465306 37.77450920314459,28.803923501465306 C42.91479622743691,28.803923501465306 47.07843017578125,32.96755744980965 47.07843017578125,38.10784447410197 C47.07843017578125,43.24813591859902 42.91479622743691,47.41176986694336 37.77450920314459,47.41176986694336 C32.634226599057,47.41176986694336 28.470590440610295,43.24813591859902 28.470590440610295,38.10784447410197 z" id="svg_2" class="selected" transform=""/></g></svg>