<svg xmlns="http://www.w3.org/2000/svg" width="16" height="16" fill="none"><rect id="backgroundrect" width="100%" height="100%" x="0" y="0" fill="none" stroke="none"/><g class="currentLayer" style=""><title>Layer 1</title><path fill="#EA1B22" fill-rule="evenodd" d="M.1 8c0 2.761 2.237 5 4.997 5h5.806A4.999 4.999 0 0015.9 8c0-2.761-2.237-5-4.997-5H5.097A4.999 4.999 0 00.1 8zm13.911 0a3.235 3.235 0 01-3.234 3.237h-5.55A3.235 3.235 0 011.991 8a3.235 3.235 0 013.234-3.236h5.551A3.235 3.235 0 0114.011 8z" clip-rule="evenodd" id="svg_1" class=""/><path fill="#EA1B22" fill-opacity="1" stroke="none" stroke-opacity="1" stroke-width="1" stroke-dasharray="none" stroke-linejoin="miter" stroke-linecap="butt" stroke-dashoffset="" fill-rule="evenodd" opacity="1" marker-start="" marker-mid="" marker-end="" d="M-55,0 C-55,0 -55,0 -55,0 C-55,0 -55,0 -55,0 C-55,0 -55,0 -55,0 C-55,0 -55,0 -55,0 Z" id="svg_2"/><path fill="#1aeb1a" fill-opacity="1" stroke="#000000" stroke-opacity="1" stroke-width="1" stroke-dasharray="none" stroke-linejoin="miter" stroke-linecap="butt" stroke-dashoffset="" fill-rule="evenodd" opacity="1" marker-start="" marker-mid="" marker-end="" d="M8.67816100717414,11.889518024592558 C8.67816100717414,10.05036171570712 10.179078552890681,8.560645105509916 12.03206317723209,8.560645105509916 C13.885047801573497,8.560645105509916 15.385965347290039,10.05036171570712 15.385965347290039,11.889518024592558 C15.385965347290039,13.728674333477995 13.885047801573497,15.2183909436752 12.03206317723209,15.2183909436752 C10.179078552890681,15.2183909436752 8.67816100717414,13.728674333477995 8.67816100717414,11.889518024592558 z" id="svg_4" class="selected"/></g></svg>