<svg xmlns="http://www.w3.org/2000/svg" xmlns:xlink="http://www.w3.org/1999/xlink" version="1.1" style="enable-background:new 0 0 1000 210;" xml:space="preserve" width="105" height="105"><rect id="backgroundrect" width="100%" height="100%" x="0" y="0" fill="none" stroke="none"/>
<style type="text/css">
	.st0{fill:#18499D;}
	.st1{fill-rule:evenodd;clip-rule:evenodd;fill:#18499D;}
</style>

<g class="currentLayer" style=""><title>Layer 1</title><g id="svg_1">
	<path class="st1" d="M48.8,11.8c3.1,0,5.6,2.5,5.6,5.6c0,3.1-2.5,5.6-5.6,5.6s-5.6-2.5-5.6-5.6c0,0,0,0,0,0   C43.3,14.3,45.7,11.8,48.8,11.8z M11.8,38.5c3.1,0,5.6,2.5,5.6,5.6c0,3.1-2.5,5.6-5.6,5.6s-5.6-2.5-5.6-5.6   C6.3,41,8.8,38.5,11.8,38.5z M26.3,82.1c3.1,0,5.6,2.5,5.6,5.6s-2.5,5.6-5.6,5.6c-3.1,0-5.6-2.5-5.6-5.6   C20.7,84.6,23.2,82.1,26.3,82.1z M71.3,82.1c3.1,0,5.6,2.5,5.6,5.6s-2.5,5.6-5.6,5.6s-5.6-2.5-5.6-5.6   C65.7,84.6,68.2,82.1,71.3,82.1z M57,44.9H40.6l-5,15.5l13.2,9.6L62,60.5L57,44.9L57,44.9z M41.1,43.6L46.8,26   c-0.4-0.1-0.9-0.2-1.3-0.4l-5.8,18h-19c0,0.2,0,0.3,0,0.5c0,0.3,0,0.6,0,0.8h18.5l-4.8,14.7l-15-10.9c-0.2,0.4-0.5,0.7-0.8,1.1   l12.8,9.3l0,0l2.6,1.9l-0.9,2.5l0,0l-5,15.5c0.4,0.1,0.9,0.2,1.3,0.4l5.7-17.5l12.5,9.1L32.9,81.7c0.3,0.3,0.6,0.7,0.8,1l15.1-11   l15.1,11c0.2-0.4,0.5-0.7,0.8-1L49.9,70.9l12.5-9.1l0.6,1.7l0,0l5.2,15.9c0.4-0.2,0.8-0.3,1.3-0.4l-5.8-18l2.6-1.9L79,49.8   c-0.3-0.3-0.5-0.7-0.8-1.1l-12.4,9L65.4,58l-2.3,1.6l-4.8-14.7h18.5c0-0.3,0-0.6,0-0.9c0-0.2,0-0.3,0-0.5h-19l-5.8-18   c-0.4,0.2-0.8,0.3-1.3,0.4l5.7,17.6L41.1,43.6z M18.9,38.6l22.5-16.4c0.2,0.4,0.5,0.7,0.8,1L19.6,39.7C19.4,39.3,19.1,39,18.9,38.6   L18.9,38.6z M22.9,79.4l-8.7-26.8c0.4-0.1,0.8-0.3,1.2-0.4L24.2,79C23.7,79.1,23.3,79.3,22.9,79.4L22.9,79.4z M62.5,88H35.2   c0-0.1,0-0.2,0-0.4c0-0.3,0-0.6,0-1h27.3c0,0.3,0,0.6,0,1C62.4,87.8,62.4,87.9,62.5,88L62.5,88z M83.5,52.7l-8.7,26.8   c-0.4-0.2-0.8-0.3-1.2-0.4l8.7-26.8C82.6,52.4,83,52.6,83.5,52.7z M56.3,22.2l22.5,16.4c-0.3,0.3-0.5,0.7-0.7,1.1L55.4,23.3   C55.7,22.9,56,22.6,56.3,22.2z M85.8,38.5c3.1,0,5.6,2.5,5.6,5.6c0,3.1-2.5,5.6-5.6,5.6s-5.6-2.5-5.6-5.6   C80.2,41,82.7,38.5,85.8,38.5z" id="svg_2"/>
</g><path fill="#1aeb1a" fill-opacity="1" stroke="#222222" stroke-opacity="1" stroke-width="2" stroke-dasharray="none" stroke-linejoin="round" stroke-linecap="butt" stroke-dashoffset="" fill-rule="nonzero" opacity="1" marker-start="" marker-mid="" marker-end="" d="M65.66666528266741,85.38888896843824 C65.66666528266741,74.92234462280982 74.14456620262644,66.44444370285079 84.61111054825484,66.44444370285079 C95.07765489388326,66.44444370285079 103.55555581384229,74.92234462280982 103.55555581384229,85.38888896843824 C103.55555581384229,95.85543331406664 95.07765489388326,104.33333423402567 84.61111054825484,104.33333423402567 C74.14456620262644,104.33333423402567 65.66666528266741,95.85543331406664 65.66666528266741,85.38888896843824 z" id="svg_3" class="selected"/></g></svg>